# xmcd
#
# Track frame offsets:
#	150
#	18033
#	32224
#	49144
#	59716
#	71966
#	87714
#	101442
#	112189
#	124957
#	136130
#	147750
#
# Disc length: 2181 seconds
#
# Revision: 1
# Processed by: cddbd v1.5.2PL0 Copyright (c) Steve Scherf et al.
# Submitted via: audiograbber 1.83.01
#
DISCID=b608830c
DTITLE=Joan de Nadau - Carnet de Chansons
DYEAR=1900
DGENRE=Chansons traditionnelles
TTITLE0=Mon Dieu que j'en suis à mon aise
TTITLE1=Trois jeunes filles
TTITLE2=Sur la pente d'une colline
TTITLE3=Il y a cinq ans au mois d'avril
TTITLE4=Le vieux moulin
TTITLE5=Ah que l'amour est agréable
TTITLE6=Eugénie
TTITLE7=Appolonie
TTITLE8=Tout en passant à l'entour du moulin
TTITLE9=Au bord d'une fontaine
TTITLE10=Une fillette de quinze ans
TTITLE11=Derrière chez moi
EXTD=
EXTT0=
EXTT1=
EXTT2=
EXTT3=
EXTT4=
EXTT5=
EXTT6=
EXTT7=
EXTT8=
EXTT9=
EXTT10=
EXTT11=
PLAYORDER=
